{"title":"bhale bhale magadivoy (2015) DVD 720x480 GOUTI007release","uid":12667230,"size":4102285580,"categoryP":"video","categoryS":"movies","magnet":"?xt=urn:btih:fb9d40955f65357dcdf65f5ba31f567f963f7d4e&amp;dn=bhale+bhale+magadivoy+%282015%29+DVD+720x480+GOUTI007release&amp;tr=udp%3A%2F%2Ftracker.leechers-paradise.org%3A6969&amp;tr=udp%3A%2F%2Fzer0day.ch%3A1337&amp;tr=udp%3A%2F%2Fopen.demonii.com%3A1337&amp;tr=udp%3A%2F%2Ftracker.coppersurfer.tk%3A6969&amp;tr=udp%3A%2F%2Fexodus.desync.com%3A6969","seeders":0,"leechers":1,"uploader":"gouti123","files":1,"time":1446378530,"description":"[color=red][size=200]BHALE BHALE MAGADIVOY[/size][/color] FULL MOVIE\r\n\r\n[size=200][color=blue]INFO:[/color][/size]\r\nGeneral\r\nComplete name : H:bhale bhale magadivoy (2015) DVD untouched 720x480 GOUTI007release.avi\r\nFormat : AVI\r\nFormat/Info : Audio Video Interleave\r\nFile size : 3.82 GiB\r\nDuration : 2h 17mn\r\nOverall bit rate : 3 975 Kbps\r\n\r\nVideo\r\nID : 0\r\nFormat : MPEG Video\r\nFormat version : Version 2\r\nFormat profile :   \r\nFormat settings, BVOP : Yes\r\nFormat settings, Matrix : Default\r\nFormat settings, GOP : M=3, N=12\r\nCodec ID : MPEG\r\nCodec ID/Info : Chromatic MPEG 1 Video I Frame\r\nDuration : 2h 17mn\r\nBit rate mode : Variable\r\nBit rate : 3 515 Kbps\r\nNominal bit rate : 9 800 Kbps\r\nWidth : 720 pixels\r\nHeight : 480 pixels\r\nDisplay aspect ratio : 4:3\r\nFrame rate : 25.000 fps\r\nStandard : PAL\r\nColor space : YUV\r\nChroma subsampling : 4:2:0\r\nBit depth : 8 bits\r\nScan type : Progressive\r\nCompression mode : Lossy\r\nBits/(Pixel*Frame) : 0.339\r\nStream size : 3.38 GiB (88%)\r\n\r\nAudio\r\nID : 1\r\nFormat : AC-3\r\nFormat/Info : Audio Coding 3\r\nMode extension : CM (complete main)\r\nCodec ID : 2000\r\nDuration : 2h 17mn\r\nBit rate mode : Constant\r\nBit rate : 448 Kbps\r\nChannel(s) : 6 channels\r\nChannel positions : Front: L C R, Side: L R, LFE\r\nSampling rate : 48.0 KHz\r\nBit depth : 16 bits\r\nCompression mode : Lossy\r\nStream size : 441 MiB (11%)\r\nAlignment : Aligned on interleaves\r\nInterleave, duration : 32 ms (0.80 video frame)\r\n\r\n[size=200][color=purple][center]SCREENSHOTS:[/center][/color][/size]\r\n[image=IC97SenTWR]\r\n[image=fFcPiwpIav]\r\n[image=GaeuUov5L9]\r\n[image=V1mNBgYK0F]\r\n\r\n[color=green][size=200]PLEASE SEED[/size][/color] AFTER YOU DOWNLOAD!!","torrent":{"xt":"urn:btih:fb9d40955f65357dcdf65f5ba31f567f963f7d4e","amp;dn":"bhale+bhale+magadivoy+%282015%29+DVD+720x480+GOUTI007release","amp;tr":["udp%3A%2F%2Ftracker.leechers-paradise.org%3A6969","udp%3A%2F%2Fzer0day.ch%3A1337","udp%3A%2F%2Fopen.demonii.com%3A1337","udp%3A%2F%2Ftracker.coppersurfer.tk%3A6969","udp%3A%2F%2Fexodus.desync.com%3A6969"],"infoHash":"fb9d40955f65357dcdf65f5ba31f567f963f7d4e","infoHashBuffer":{"type":"Buffer","data":[251,157,64,149,95,101,53,125,205,246,95,91,163,31,86,127,150,63,125,78]},"announce":[],"urlList":[]}}